<?xml version="1.0" standalone="no"?>
<!DOCTYPE svg PUBLIC "-//W3C//DTD SVG 20010904//EN"
 "http://www.w3.org/TR/2001/REC-SVG-20010904/DTD/svg10.dtd">
<svg version="1.0" xmlns="http://www.w3.org/2000/svg"
 width="100.000000pt" height="100.000000pt" viewBox="0 0 100.000000 100.000000"
 preserveAspectRatio="xMidYMid meet">
<metadata>
Created by potrace 1.14, written by Peter Selinger 2001-2017
</metadata>
<g transform="translate(0.000000,100.000000) scale(0.100000,-0.100000)"
fill="#000000" stroke="none">
<path d="M395 923 c-4 -10 -23 -63 -42 -118 -19 -55 -61 -174 -93 -265 -142
-403 -162 -462 -153 -471 6 -6 48 -9 94 -7 l84 3 23 65 c12 36 29 84 38 108
l16 43 140 -3 140 -3 33 -97 c18 -53 36 -102 40 -107 8 -15 172 -14 180 0 4 6
0 29 -8 52 -9 23 -34 96 -57 162 -60 172 -198 563 -217 613 l-16 42 -97 0
c-84 0 -99 -3 -105 -17z m286 -338 c60 -171 120 -341 133 -380 14 -38 28 -78
31 -87 6 -16 1 -18 -46 -18 l-54 0 -38 110 -39 110 -168 0 -168 0 -31 -85
c-17 -47 -33 -96 -37 -110 -6 -23 -11 -25 -61 -25 -48 0 -54 2 -49 17 8 19
114 321 207 588 33 94 61 176 64 183 3 9 25 12 76 10 l71 -3 109 -310z"/>
<path d="M471 718 c-5 -13 -16 -43 -24 -68 -9 -25 -30 -85 -47 -134 -17 -49
-29 -95 -26 -102 4 -11 35 -14 132 -14 l126 0 -5 28 c-2 15 -27 90 -54 167
-42 116 -54 141 -72 143 -14 2 -24 -4 -30 -20z m103 -255 c7 -23 6 -23 -73
-23 -45 0 -81 1 -81 3 0 5 57 169 70 202 11 30 12 29 44 -65 18 -52 36 -105
40 -117z"/>
</g>
</svg>
